<?xml version="1.0" standalone="no"?>
<!DOCTYPE svg PUBLIC "-//W3C//DTD SVG 20010904//EN"
 "http://www.w3.org/TR/2001/REC-SVG-20010904/DTD/svg10.dtd">
<svg version="1.0" xmlns="http://www.w3.org/2000/svg"
 width="800.000000pt" height="800.000000pt" viewBox="0 0 800.000000 800.000000"
 preserveAspectRatio="xMidYMid meet">
<metadata>
Created by potrace 1.11, written by Peter Selinger 2001-2013
</metadata>
<g transform="translate(0.000000,800.000000) scale(0.100000,-0.100000)"
fill="#000000" stroke="none">
<path d="M3755 7410 c-44 -4 -111 -11 -150 -14 -38 -4 -81 -9 -95 -11 -88 -14
-259 -45 -280 -50 -14 -3 -36 -8 -50 -11 -32 -6 -152 -39 -205 -55 -22 -7 -42
-13 -45 -14 -175 -45 -532 -203 -765 -340 -110 -64 -387 -258 -441 -309 -7 -6
-36 -31 -65 -56 -88 -73 -310 -298 -390 -395 -281 -338 -482 -692 -619 -1092
-56 -164 -50 -156 -136 -168 -21 -4 -55 -10 -74 -15 -19 -5 -53 -11 -75 -15
-79 -12 -226 -45 -245 -55 -33 -18 -65 -94 -75 -180 -1 -8 -5 -35 -8 -60 -23
-156 -32 -334 -31 -595 0 -252 8 -403 30 -575 2 -19 6 -53 9 -75 8 -68 28
-129 49 -152 27 -28 84 -44 321 -88 17 -3 57 -10 90 -15 106 -18 99 -12 125
-97 58 -190 205 -517 315 -698 94 -155 240 -360 335 -469 113 -131 259 -276
400 -396 121 -103 325 -250 425 -306 11 -6 64 -37 118 -68 317 -181 766 -344
1107 -401 19 -3 60 -10 90 -15 30 -5 71 -12 90 -14 19 -3 55 -7 80 -10 215
-28 628 -27 820 1 19 3 42 5 50 5 8 0 33 4 55 8 22 5 65 12 95 15 30 4 58 9
61 11 4 2 24 6 44 10 159 25 451 114 675 205 78 32 361 168 370 178 3 3 25 17
50 30 70 38 264 166 354 233 376 284 712 666 926 1053 54 97 155 305 185 380
15 39 31 79 36 90 5 11 25 66 43 123 18 56 35 105 38 108 5 4 63 16 148 29 71
11 323 67 343 76 45 20 62 73 83 260 3 30 7 65 9 78 18 108 24 591 12 836 -13
269 -43 430 -87 470 -10 9 -51 25 -92 35 -72 19 -86 22 -183 40 -27 6 -90 18
-139 28 l-89 18 -27 89 c-135 436 -368 850 -679 1210 -87 100 -306 310 -428
410 -219 179 -506 355 -779 477 -85 37 -158 68 -164 68 -6 0 -18 4 -28 10 -87
49 -549 172 -737 195 -22 3 -51 7 -65 10 -14 2 -54 7 -90 11 -36 4 -78 8 -95
10 -64 9 -474 11 -550 4z m545 -853 c14 -3 50 -8 80 -11 115 -14 292 -52 430
-93 30 -10 57 -18 60 -18 59 -17 225 -86 345 -145 362 -178 657 -423 935 -777
82 -104 294 -472 273 -474 -16 -2 -129 1 -265 5 -128 5 -351 11 -728 21 -1192
32 -2313 25 -3535 -21 -348 -13 -324 -13 -317 5 3 9 30 61 60 116 297 547 750
958 1319 1198 161 68 435 151 532 161 20 2 47 6 61 10 32 7 81 14 161 22 35 3
66 8 68 10 6 5 493 -3 521 -9z m-2365 -3593 c1071 -41 3450 -34 4383 12 67 3
122 3 122 0 0 -17 -113 -227 -183 -341 -17 -28 -138 -196 -162 -224 -112 -137
-255 -282 -370 -376 -33 -28 -62 -52 -65 -55 -14 -16 -157 -113 -239 -164
-296 -183 -675 -320 -996 -362 -27 -3 -59 -8 -69 -10 -127 -24 -556 -23 -716
1 -220 34 -282 47 -430 91 -142 42 -425 155 -466 186 -6 4 -31 19 -55 32 -199
106 -380 240 -561 416 -55 52 -129 131 -166 175 -37 44 -69 82 -73 85 -16 14
-152 216 -197 293 -55 92 -107 191 -122 233 l-10 25 108 -6 c59 -2 179 -8 267
-11z"/>
</g>
</svg>
